<?xml version="1.0" encoding="UTF-8"?>
<svg width="44px" height="44px" viewBox="0 0 44 44" version="1.1" xmlns="http://www.w3.org/2000/svg" xmlns:xlink="http://www.w3.org/1999/xlink">
    <!-- Generator: Sketch 48.2 (47327) - http://www.bohemiancoding.com/sketch -->
    <title>highlighter copy</title>
    <desc>Created with Sketch.</desc>
    <defs></defs>
    <g id="Page-1" stroke="none" stroke-width="1" fill="none" fill-rule="evenodd" stroke-linecap="round" stroke-linejoin="round">
        <g id="highlighter-copy" stroke="#505050" stroke-width="1.7">
            <path d="M15.2902093,32.1671854 L16.3025708,31.2868708 C16.3935788,31.2077334 16.4981517,31.1457113 16.6112387,31.1038003 L20.7355442,29.5752962 C20.8030807,29.5502665 20.8644124,29.5109413 20.9153421,29.4600116 L33.1431206,17.232233 C34.1194313,16.2559223 34.1194313,14.6730099 33.1431206,13.6966991 L30.1786545,10.732233 C29.2023438,9.75592232 27.6194313,9.75592232 26.6431206,10.732233 L14.421508,22.9538457 C14.3666205,23.0087331 14.3252661,23.075646 14.3007197,23.1492852 L12.8968161,27.360996 C12.8579682,27.4775397 12.7979786,27.5859279 12.7198518,27.6807319 L9.26849351,31.8688301 C9.16312359,31.9966927 9.18135749,32.185765 9.30922007,32.2911349 C9.34941057,32.3242554 9.39753084,32.3463428 9.44884711,32.3552244 L12.6385601,32.9072863 C13.5887584,33.0717426 14.5625245,32.799955 15.2902093,32.1671854 Z M16.440209,30.7671915 L12.940209,27.2671915 M20.3813087,28.279949 L14.8813087,22.779949" id="icon_highlighter-copy"></path>
        </g>
    </g>
</svg>